<?xml version="1.0" encoding="UTF-8"?>
<svg id="_Слой_1" data-name="Слой 1" xmlns="http://www.w3.org/2000/svg" viewBox="0 0 850.3937 543.9725">
  <defs>
    <style>
      .cls-1 {
        stroke-width: 0px;
      }
    </style>
  </defs>
  <path class="cls-1" d="M743.95475,24.18433l-6.34799,3.75286M743.95475,24.18432l3.63314-2.13597,24.54364-14.48264.22957-.13974c7.76533-4.7111,16.8881-7.42597,26.6297-7.42597,28.39636,0,51.40291,23.00654,51.40291,51.40291v441.16669c0,28.38638-23.00654,51.40291-51.40291,51.40291h-251.5249c-28.38638,0-51.40291-23.01652-51.40291-51.40291,0-28.39636,23.01652-51.40291,51.40291-51.40291h190.14085c5.51957,0,9.98115-4.47155,9.98115-9.98115V158.87989c0-1.85649-.50904-3.59321-1.39736-5.0804-1.72674-2.93446-4.92071-4.90074-8.58379-4.90074-1.71676,0-3.32372.42919-4.74104,1.19774-.16968.08983-.33936.18964-.50904.29943,0,0-.00998,0-.00998.00998l-475.77132,280.77964-16.91804,9.98115-133.22835,78.62149-28.36642,16.73838c-7.77531,4.72108-16.89808,7.44594-26.65964,7.44594-28.38638,0-51.40291-23.01652-51.40291-51.40291,0-.13974,0-.26949.00998-.40923,0-.57891.01996-1.14783.03992-1.71676,0-.03992,0-.08983.00998-.12975.01996-.529.04991-1.058.08983-1.57702,0-.02994,0-.05989.00998-.08983.05989-.83842.13974-1.65687.23955-2.47532.09981-.81845.21959-1.63691.3693-2.44538.01996-.12975.03992-.24953.06987-.37928.06987-.45913.1597-.90828.25951-1.35744.10979-.54896.23955-1.09793.3693-1.63691.11977-.51902.25951-1.03804.40923-1.54708.11977-.4791.25951-.94821.40923-1.41732.08983-.28945.17966-.57891.27947-.86836.09981-.30942.19962-.61883.29943-.91827.01996-.03992.02994-.06987.03992-.08983.32938-.94821.6887-1.87646,1.06798-2.78474.08983-.22957.18964-.44915.28945-.65876.14972-.35932.30942-.70866.46911-1.058.22957-.49906.46911-.98813.70866-1.47721s.49906-.96817.75857-1.44727c.25951-.4791.529-.94821.79849-1.41732.37928-.65876.76855-1.29755,1.17778-1.92636.17966-.27947.3693-.55894.54896-.82844.29943-.44915.60885-.8983.92825-1.33747.30942-.43917.63879-.86836.96817-1.29755.32938-.42919.65876-.85838,1.0081-1.26761,3.75291-4.59133,8.29433-8.5239,13.41466-11.58811l.76855-.44915,11.52822-6.80714,16.79827-9.92126L737.60674,27.93723l6.34801-3.75291"/>
</svg>