<?xml version="1.0" encoding="UTF-8"?>
<svg id="_Слой_2" data-name="Слой 2" xmlns="http://www.w3.org/2000/svg" viewBox="0 0 478.49 414.39">
  <defs>
    <style>
      .cls-1 {
        fill: #1d1d1b;
      }
    </style>
  </defs>
  <path class="cls-1" d="m75.05,201.69c1.85.88,4.17,1.36,6.74,1.36,4.41,0,7.62-3.13,7.62-12.27v-32.16h14.92v36.65c0,12.03-4.89,20.29-20.05,20.29-3.29,0-6.66-.88-9.22-1.52v-12.35Zm56.38-43.07h18.29l21.57,55.98h-16.36l-4.17-11.95h-21.02l-4.41,11.95h-15.16l21.25-55.98Zm9.14,11.55h-.16l-7.22,21.9h14.03l-6.66-21.9Zm88.29,42.83c-9.46,2.41-16.52,2.57-21.65,2.57-14.92,0-32.16-7.54-32.16-28.71s14.84-29.19,35.37-29.19c3.69,0,11.47.4,16.92,2.48l-1.2,12.19c-4.65-2.73-10.11-3.61-13.63-3.61-12.11,0-22.06,5.05-22.06,18.12,0,10.99,7.78,17.64,18.69,17.64,2,0,3.93-.32,5.29-.96v-11.07h-8.74v-10.59h23.18v31.12Zm62.39,0c-9.46,2.41-16.52,2.57-21.65,2.57-14.92,0-32.16-7.54-32.16-28.71s14.84-29.19,35.37-29.19c3.69,0,11.47.4,16.92,2.48l-1.2,12.19c-4.65-2.73-10.11-3.61-13.64-3.61-12.11,0-22.06,5.05-22.06,18.12,0,10.99,7.78,17.64,18.69,17.64,2,0,3.93-.32,5.29-.96v-11.07h-8.74v-10.59h23.18v31.12Zm10.26-54.38h39.46v10.59h-24.54v11.55h23.18v10.59h-23.18v12.67h25.42v10.59h-40.34v-55.98Zm49,0h26.63c9.95,0,18.04,4.49,18.04,14.12,0,7.46-3.53,12.43-10.75,14.12v.16c4.81,1.29,5.13,5.54,7.94,12.35l5.45,15.24h-15.56l-3.21-10.11c-3.05-9.62-4.97-12.03-10.51-12.03h-3.13v22.14h-14.92v-55.98Zm14.92,23.26h3.93c4.81,0,10.91-.16,10.91-6.49,0-5.21-5.21-6.18-10.91-6.18h-3.93v12.67Zm-236.68,103.3h-12.61c-8.24,0-14.52-1.85-14.52-13.16v-9.04c0-11.5,6.73-13.21,15.27-13.21h11.86c7.38,0,14.42.05,14.42,11.1h-9.45c-.15-3.57-3.26-3.52-5.98-3.52h-10.85c-4.72,0-5.73,1.86-5.73,7.69v5.68c0,6.18,2.16,6.83,5.98,6.83h11.6c3.26,0,4.97-1.06,4.97-5.93h-11.91v-6.43h21.35v6.08c0,11.75-3.32,13.91-14.42,13.91Zm56.01-.3l-3.07-5.98h-22.25l-3.12,5.98h-10.35l17.98-34.86h13.21l17.98,34.86h-10.4Zm-14.07-27.53l-7.48,14.32h14.82l-7.33-14.32Zm62.23,27.53c-3.67,0-5.38-1.76-5.38-5.22v-3.57c0-2.61-1-4.37-3.87-4.37h-16.43v13.16h-9.29v-34.86h27.88c6.93,0,11,1.46,11,9.6,0,5.07-1.26,7.79-5.93,8.29v.15c3.82.15,5.93,2.36,5.93,6.28v2.41c0,2.36.9,2.21,2.21,2.21v5.93h-6.13Zm-8.29-27.23h-17.38v7.28h16.28c3.21,0,4.02-.15,4.02-3.46s-.3-3.82-2.91-3.82Zm54.2,27.23l-3.07-5.98h-22.25l-3.12,5.98h-10.35l17.98-34.86h13.21l17.98,34.86h-10.4Zm-14.07-27.53l-7.48,14.32h14.82l-7.33-14.32Zm53.79,27.83h-12.61c-8.24,0-14.52-1.85-14.52-13.16v-9.04c0-11.5,6.73-13.21,15.27-13.21h11.86c7.38,0,14.42.05,14.42,11.1h-9.45c-.15-3.57-3.26-3.52-5.98-3.52h-10.85c-4.72,0-5.73,1.86-5.73,7.69v5.68c0,6.18,2.16,6.83,5.98,6.83h11.6c3.26,0,4.97-1.06,4.97-5.93h-11.91v-6.43h21.35v6.08c0,11.75-3.32,13.91-14.42,13.91Zm19.79-.3v-34.86h36.22v7.64h-26.93v6.38h25.92v6.43h-25.92v6.78h27.23v7.64h-36.52Zm-99.1,103.28c-99.78,0-180.96-81.18-180.96-180.96S139.46,26.23,239.24,26.23s180.97,81.18,180.97,180.97-81.18,180.96-180.97,180.96Zm0-352.64c-94.66,0-171.68,77.02-171.68,171.68s77.01,171.68,171.68,171.68,171.68-77.01,171.68-171.68S333.91,35.51,239.24,35.51Zm119.63,378.87H119.62L0,207.2,119.62,0h239.25l119.62,207.2-119.62,207.19Zm-233.89-9.29h228.53l114.26-197.9L353.51,9.29H124.98L10.72,207.2l114.26,197.9Z"/>
</svg>